<?xml version="1.0" encoding="utf-8"?><!-- Uploaded to: SVG Repo, www.svgrepo.com, Generator: SVG Repo Mixer Tools -->
<svg fill="#000000" width="800px" height="800px" viewBox="0 0 24 24" id="statistic-grow" data-name="Flat Color" xmlns="http://www.w3.org/2000/svg" class="icon flat-color"><path id="secondary" d="M21,20H3a1,1,0,0,1,0-2H21a1,1,0,0,1,0,2Z" style="fill: rgb(44, 169, 188);"></path><path id="primary" d="M21,4H16a1,1,0,0,0,0,2h2.59L13.8,10.78,8.45,8.11a1,1,0,0,0-1.22.25l-5,6a1,1,0,0,0,.13,1.41A1,1,0,0,0,3,16a1,1,0,0,0,.77-.36l4.49-5.39,5.29,2.64a1,1,0,0,0,1.16-.18L20,7.41V10a1,1,0,0,0,2,0V5A1,1,0,0,0,21,4Z" style="fill: rgb(0, 0, 0);"></path></svg>